<?xml version="1.0" encoding="utf-8"?>
<!-- Generator: Adobe Illustrator 27.0.0, SVG Export Plug-In . SVG Version: 6.00 Build 0)  -->
<svg version="1.1" id="Layer_2" xmlns="http://www.w3.org/2000/svg" xmlns:xlink="http://www.w3.org/1999/xlink" x="0px" y="0px"
	 width="841.89px" height="595.276px" viewBox="0 0 841.89 595.276" enable-background="new 0 0 841.89 595.276"
	 xml:space="preserve">
<line fill="none" stroke="#000000" stroke-width="5" stroke-linecap="round" stroke-linejoin="round" stroke-miterlimit="10" x1="667.049" y1="267.859" x2="723.193" y2="264.652"/>
<path fill="none" stroke="#000000" stroke-width="5" stroke-linecap="round" stroke-linejoin="round" stroke-miterlimit="10" d="
	M675.226,251.753l26.982-11.357c0,0-8.449,10.084-4.361,9.812c4.088-0.273,29.435-12.537,29.435-12.537s-7.631,10.902-4.361,10.357
	c3.271-0.545,29.162-7.904,29.162-7.904s-5.178,7.631-1.363,7.086c3.816-0.545,67.045-18.533,67.591-9.539"/>
<path fill="none" stroke="#000000" stroke-width="5" stroke-linecap="round" stroke-linejoin="round" stroke-miterlimit="10" d="
	M632.923,233.183l33.952-22.768c0,0-38.848,103.93,7.19,113.839c38.97,8.388,63.91-36.349,63.91-36.349"/>
<path fill="none" stroke="#000000" stroke-width="5" stroke-linecap="round" stroke-linejoin="round" stroke-miterlimit="10" d="
	M601.367,234.381c0,0,35.15-102.655,84.68-104.652c43.104-1.738,26.762,43.139,4.793,77.491
	c-18.233,28.51-46.268,54.247-65.907,52.619c-29.159-2.417,32.268-100.152,32.268-100.152"/>
<circle cx="549.077" cy="254.587" r="2.835"/>
<path fill="none" stroke="#000000" stroke-width="5" stroke-linecap="round" stroke-linejoin="round" stroke-miterlimit="10" d="
	M443.59,227.99c0,0,97.438-60.95,119.831-21.17c12.782,22.707-68.304,65.508-65.907,49.53"/>
<line fill="none" stroke="#000000" stroke-width="5" stroke-linecap="round" stroke-linejoin="round" stroke-miterlimit="10" x1="523.078" y1="166.877" x2="476.344" y2="262.741"/>
<path fill="none" stroke="#000000" stroke-width="5" stroke-linecap="round" stroke-linejoin="round" stroke-miterlimit="10" d="
	M356.114,265.537l22.368-9.187c0,0-22.368,20.371-14.38,17.975c7.989-2.397,39.544-17.975,39.544-17.975s-9.586,13.181-5.992,13.181
	c3.595,0,29.159-13.181,29.159-13.181s-7.989,12.383-3.195,12.383c4.793,0,25.963-9.586,25.963-9.586"/>
<path fill="none" stroke="#000000" stroke-width="5" stroke-linecap="round" stroke-linejoin="round" stroke-miterlimit="10" d="
	M286.991,279.078c20.505-19.66,19.015-60.377-39.378-46.538c-43.296,10.261,76.2,10.228,128.363-48.072
	c0,0-15.629,48.737-50.629,108.674c-16.262,27.848-29.684,60.277-60.346,87.45c-83.055,73.607-269-24.547-228.087-57.789
	c20.456-16.621,168.892-25.251,311.446-34.264c142.555-9.014,279.228-18.411,279.228-18.411"/>
</svg>
